<svg width="0" height="0" class="hidden">
  <symbol xmlns="http://www.w3.org/2000/svg" width="16" height="16" viewBox="0 0 16 16" id="arrow-up">      
    <circle cx="8" cy="8" r="8" fill="white"/>
    <path fill-rule="evenodd" clip-rule="evenodd" d="M8.45453 11.6364L8.45453 6.10454L10.9954 8.64545L11.6364 8L7.99999 4.36363L4.36362 8L5.00453 8.6409L7.54544 6.10454L7.54544 11.6364L8.45453 11.6364Z" fill="#0C0B10"/>
  </symbol>
  <symbol  xmlns="http://www.w3.org/2000/svg" viewBox="0 0 28 28" id="cross">
    <path fill-rule="evenodd" clip-rule="evenodd" d="M28 2.82L25.18 0L14 11.18L2.82 0L0 2.82L11.18 14L0 25.18L2.82 28L14 16.82L25.18 28L28 25.18L16.82 14L28 2.82Z"></path>
  </symbol>
  <symbol  xmlns="http://www.w3.org/2000/svg" viewBox="0 0 24 16" id="menu">
    <path fill-rule="evenodd" clip-rule="evenodd" d="M0 16H24V13.3333H0V16ZM0 9.33333H24V6.66667H0V9.33333ZM0 0V2.66667H24V0H0Z" ></path>
  </symbol>
  <symbol  xmlns="http://www.w3.org/2000/svg" viewBox="0 0 23 23" id="quotes-down">
    <path d="M17.5 -2.71837e-05C18.5 -2.70963e-05 19.4333 0.383308 20.3 1.14997C21.1333 1.94998 21.8 2.98331 22.3 4.24997C22.7667 5.51664 23 6.86664 23 8.29998C23 10.5 22.6167 12.5666 21.85 14.5C21.05 16.4666 20.0833 18.1166 18.95 19.45C17.8167 20.8166 16.7333 21.7833 15.7 22.35L15.65 22.35L13.9 20.75L13.9 20.05C14.7333 19.2833 15.5167 18.1833 16.25 16.75C16.9833 15.35 17.35 13.6166 17.35 11.55C17.35 10.4833 17.2 9.61664 16.9 8.94997C16.6 8.28331 16.15 7.54997 15.55 6.74998C15.05 6.11664 14.6833 5.56664 14.45 5.09997C14.2167 4.63331 14.1 4.06664 14.1 3.39997C14.1 2.39997 14.4333 1.58331 15.1 0.949973C15.7333 0.31664 16.5333 -2.72682e-05 17.5 -2.71837e-05ZM3.59999 -2.83989e-05C4.59999 -2.83115e-05 5.51666 0.383307 6.34999 1.14997C7.18333 1.94997 7.85 2.98331 8.35 4.24997C8.81667 5.51664 9.05 6.86664 9.05 8.29997C9.05 10.5 8.66666 12.5666 7.89999 14.5C7.1 16.4666 6.13333 18.1333 5 19.5C3.86667 20.8666 2.78333 21.8166 1.75 22.35L1.7 22.35L1.39876e-07 20.75L2.01072e-07 20.05C0.833332 19.2833 1.61666 18.1833 2.34999 16.75C3.08333 15.35 3.45 13.6166 3.45 11.55C3.45 10.4833 3.3 9.61664 3 8.94997C2.7 8.28331 2.25 7.54997 1.65 6.74997C1.15 6.11664 0.783323 5.56664 0.549989 5.09997C0.316658 4.63331 0.199999 4.06664 0.199999 3.39997C0.199999 2.39997 0.533333 1.58331 1.2 0.949972C1.83333 0.316639 2.63333 -2.84834e-05 3.59999 -2.83989e-05Z" ></path>
  </symbol>
  <symbol  xmlns="http://www.w3.org/2000/svg" viewBox="0 0 24 23" id="quotes-up">
    <path d="M5.84845 22.65C4.84845 22.65 3.91512 22.2667 3.04845 21.5C2.21512 20.7 1.54845 19.6667 1.04845 18.4C0.581788 17.1333 0.34845 15.7833 0.34845 14.35C0.34845 12.15 0.731785 10.0833 1.49845 8.14999C2.29845 6.18332 3.26512 4.53332 4.39845 3.19999C5.53179 1.83332 6.61512 0.866655 7.64845 0.299988H7.69846L9.44846 1.89999V2.59999C8.61512 3.36665 7.83178 4.46665 7.09845 5.89999C6.36512 7.29999 5.99845 9.03332 5.99845 11.1C5.99845 12.1667 6.14846 13.0333 6.44846 13.7C6.74846 14.3667 7.19845 15.1 7.79845 15.9C8.29845 16.5333 8.66512 17.0833 8.89845 17.55C9.13179 18.0167 9.24845 18.5833 9.24845 19.25C9.24845 20.25 8.91512 21.0667 8.24845 21.7C7.61512 22.3333 6.81512 22.65 5.84845 22.65ZM19.7485 22.65C18.7485 22.65 17.8318 22.2667 16.9985 21.5C16.1651 20.7 15.4985 19.6667 14.9985 18.4C14.5318 17.1333 14.2985 15.7833 14.2985 14.35C14.2985 12.15 14.6818 10.0833 15.4485 8.14999C16.2485 6.18332 17.2151 4.51665 18.3484 3.14999C19.4818 1.78332 20.5651 0.83332 21.5984 0.299988H21.6485L23.3484 1.89999V2.59999C22.5151 3.36665 21.7318 4.46665 20.9985 5.89999C20.2651 7.29999 19.8985 9.03332 19.8985 11.1C19.8985 12.1667 20.0485 13.0333 20.3484 13.7C20.6484 14.3667 21.0985 15.1 21.6985 15.9C22.1985 16.5333 22.5651 17.0833 22.7985 17.55C23.0318 18.0167 23.1485 18.5833 23.1485 19.25C23.1485 20.25 22.8151 21.0667 22.1485 21.7C21.5151 22.3333 20.7151 22.65 19.7485 22.65Z" ></path>
  </symbol>
  <symbol  xmlns="http://www.w3.org/2000/svg" viewBox="0 0 29 29" id="phone">
  <g clip-path="url(#clip0_81_615)">
<path d="M20.0378 15.205C19.9815 15.2895 19.9815 15.3741 19.9533 15.4868C19.9251 15.8532 20.2069 16.1914 20.5733 16.2195C20.9397 16.2477 21.2779 15.9659 21.3061 15.5995C21.3061 15.515 21.3061 15.4304 21.3343 15.2895C21.3343 15.1486 21.3343 15.064 21.3343 14.9795C21.3343 14.1622 21.1933 13.3731 20.9397 12.6121C20.6015 11.6257 20.0097 10.752 19.3051 10.0193C18.4314 9.1456 17.3604 8.52558 16.1486 8.18738C15.5849 8.04646 14.9649 7.96191 14.373 7.96191C14.1758 7.96191 13.9785 7.96191 13.753 7.9901C13.5557 8.01828 13.3585 8.04646 13.1612 8.07465C12.7948 8.13101 12.5411 8.49739 12.6257 8.83559C12.6821 9.20197 13.0484 9.45562 13.3866 9.37107C13.5557 9.34288 13.6967 9.3147 13.8658 9.3147C13.8939 9.3147 13.9221 9.3147 13.9503 9.3147C14.0912 9.3147 14.2321 9.28652 14.373 9.28652C15.9231 9.28652 17.3604 9.90654 18.375 10.9493C19.3896 11.9639 20.0097 13.3449 20.0378 14.8949V14.9513C20.0378 15.064 20.0378 15.1486 20.0378 15.205Z"/>
<path d="M23.7581 15.825C23.7299 16.1914 24.0118 16.5296 24.3782 16.5577C24.7445 16.5859 25.0827 16.3041 25.1109 15.9377C25.1391 15.6277 25.1391 15.3177 25.1391 15.0077C25.1391 14.3876 25.0827 13.7958 24.9982 13.204C24.6318 10.9493 23.5327 8.92013 21.9826 7.37006C20.2071 5.59453 17.8397 4.43903 15.2187 4.24174C14.9368 4.21356 14.6268 4.21356 14.345 4.21356C14.035 4.21356 13.725 4.21356 13.4149 4.24174C13.1049 4.26993 12.7949 4.29811 12.4849 4.35448C12.1185 4.41084 11.8649 4.77722 11.9494 5.11542C12.0058 5.4818 12.3722 5.73545 12.7104 5.6509C12.9077 5.62271 13.0768 5.59453 13.274 5.56635C13.3586 5.56635 13.4431 5.53816 13.5277 5.53816C13.8095 5.50998 14.0913 5.50998 14.345 5.50998C15.3032 5.50998 16.2051 5.6509 17.0787 5.90454C18.6006 6.35547 19.9534 7.17278 21.0526 8.27192C21.9544 9.17378 22.6872 10.2729 23.1663 11.4566C23.589 12.5276 23.8427 13.7112 23.8427 14.9513C23.8427 15.0359 23.8427 15.1486 23.8427 15.2331C23.7863 15.4586 23.7581 15.6277 23.7581 15.825Z"/>
<path d="M24.7163 4.66448C22.0389 1.98709 18.3752 0.352478 14.3168 0.352478C13.894 0.352478 13.4713 0.380661 13.0486 0.408844C12.6258 0.437027 12.2031 0.493393 11.7803 0.577942C11.4139 0.634308 11.1603 1.00069 11.2448 1.33888C11.3012 1.70526 11.6676 1.95891 12.0058 1.87436C12.2031 1.84618 12.3722 1.818 12.5694 1.78981C12.7667 1.76163 12.964 1.73345 13.1613 1.73345C13.5558 1.70526 13.9222 1.67708 14.3168 1.67708C17.9806 1.67708 21.3062 3.17078 23.7299 5.56634C26.1255 7.9619 27.6192 11.2875 27.6192 14.9795C27.6192 15.1768 27.6192 15.4022 27.6192 15.5995C27.6192 15.7686 27.591 15.9377 27.591 16.135C27.5628 16.5014 27.8447 16.8396 28.211 16.8677C28.5774 16.8959 28.9156 16.6141 28.9438 16.2477C28.972 15.825 29.0002 15.4022 29.0002 15.0077C29.0002 10.9775 27.3655 7.31369 24.7163 4.66448Z"/>
<path d="M27.9572 21.7434L22.9688 19.066C21.306 18.1641 21.2497 18.756 19.5023 20.6161C19.0796 21.067 18.2905 22.2507 17.3604 22.0252C15.4158 21.5461 11.7802 18.6996 10.5965 17.4032C10.0328 16.7832 7.60909 13.824 7.5809 12.8657C7.52454 11.4002 10.7374 10.6675 9.69463 7.87733L7.46817 2.88894C5.38263 -1.90218 -0.451265 5.76361 0.0278472 9.34285C1.2679 18.1641 16.7404 32.4248 25.3644 27.7182C27.2808 26.6472 29.8737 22.8989 27.9572 21.7434Z"/>
</g>
<defs>
<clipPath id="clip0_81_615">
<rect width="29" height="29"/>
</clipPath>
</defs>
  </symbol>
</svg>